<svg xmlns="http://www.w3.org/2000/svg" width="330.0" height="1360.0"><defs ><marker id="dot" refX="2" refY="2" markerWidth="3" markerHeight="3" orient="auto-start-reverse"><circle cx="2" cy="2" r="1" fill-opacity="0.3"/></marker></defs><circle stroke="red" cx="110.0" cy="20.0" r="1"/><line stroke="yellow" stroke-width="1" x1="110.0" y1="20.0" x2="100.0" y2="20.0" marker-end="url(#dot)"/><line stroke="magenta" stroke-width="1" x1="100.0" y1="20.0" x2="100.0" y2="740.0" marker-end="url(#dot)"/><line stroke="yellow" stroke-width="1" x1="100.0" y1="740.0" x2="110.0" y2="740.0" marker-end="url(#dot)"/><line stroke="yellow" stroke-width="1" x1="110.0" y1="740.0" x2="140.0" y2="740.0" marker-end="url(#dot)"/><line stroke="magenta" stroke-width="1" x1="140.0" y1="740.0" x2="140.0" y2="1030.0" marker-end="url(#dot)"/><line stroke="yellow" stroke-width="1" x1="140.0" y1="1030.0" x2="110.0" y2="1030.0" marker-end="url(#dot)"/><line stroke="yellow" stroke-width="1" x1="110.0" y1="1030.0" x2="70.0" y2="1030.0" marker-end="url(#dot)"/><line stroke="magenta" stroke-width="1" x1="70.0" y1="1030.0" x2="70.0" y2="1100.0" marker-end="url(#dot)"/><line stroke="yellow" stroke-width="1" x1="70.0" y1="1100.0" x2="110.0" y2="1100.0" marker-end="url(#dot)"/><line stroke="blue" stroke-width="1" x1="110.0" y1="1100.0" x2="110.0" y2="1130.0" marker-end="url(#dot)"/><line stroke="yellow" stroke-width="1" x1="110.0" y1="1130.0" x2="150.0" y2="1130.0" marker-end="url(#dot)"/><line stroke="magenta" stroke-width="1" x1="150.0" y1="1130.0" x2="150.0" y2="1160.0" marker-end="url(#dot)"/><line stroke="yellow" stroke-width="1" x1="150.0" y1="1160.0" x2="110.0" y2="1190.0" marker-end="url(#dot)"/><line stroke="yellow" stroke-width="1" x1="110.0" y1="1190.0" x2="40.0" y2="1190.0" marker-end="url(#dot)"/><line stroke="magenta" stroke-width="1" x1="40.0" y1="1190.0" x2="40.0" y2="1220.0" marker-end="url(#dot)"/><line stroke="yellow" stroke-width="1" x1="40.0" y1="1220.0" x2="110.0" y2="1220.0" marker-end="url(#dot)"/><line stroke="yellow" stroke-width="1" x1="110.0" y1="1220.0" x2="260.0" y2="1220.0" marker-end="url(#dot)"/><line stroke="magenta" stroke-width="1" x1="260.0" y1="1220.0" x2="260.0" y2="550.0" marker-end="url(#dot)"/><line stroke="yellow" stroke-width="1" x1="260.0" y1="550.0" x2="110.0" y2="550.0" marker-end="url(#dot)"/><line stroke="yellow" stroke-width="1" x1="110.0" y1="550.0" x2="40.0" y2="550.0" marker-end="url(#dot)"/><line stroke="magenta" stroke-width="1" x1="40.0" y1="550.0" x2="40.0" y2="430.0" marker-end="url(#dot)"/><line stroke="yellow" stroke-width="1" x1="40.0" y1="430.0" x2="110.0" y2="430.0" marker-end="url(#dot)"/><line stroke="yellow" stroke-width="1" x1="110.0" y1="430.0" x2="180.0" y2="430.0" marker-end="url(#dot)"/><line stroke="magenta" stroke-width="1" x1="180.0" y1="430.0" x2="180.0" y2="980.0" marker-end="url(#dot)"/><line stroke="yellow" stroke-width="1" x1="180.0" y1="980.0" x2="110.0" y2="980.0" marker-end="url(#dot)"/><line stroke="yellow" stroke-width="1" x1="110.0" y1="980.0" x2="20.0" y2="980.0" marker-end="url(#dot)"/><line stroke="magenta" stroke-width="1" x1="20.0" y1="980.0" x2="20.0" y2="1250.0" marker-end="url(#dot)"/><line stroke="blue" stroke-width="1" x1="20.0" y1="1250.0" x2="20.0" y2="1280.0" marker-end="url(#dot)"/><line stroke="yellow" stroke-width="1" x1="20.0" y1="1280.0" x2="110.0" y2="1310.0" marker-end="url(#dot)"/><line stroke="yellow" stroke-width="1" x1="110.0" y1="1310.0" x2="180.0" y2="1310.0" marker-end="url(#dot)"/><line stroke="magenta" stroke-width="1" x1="180.0" y1="1310.0" x2="180.0" y2="1340.0" marker-end="url(#dot)"/><line stroke="yellow" stroke-width="1" x1="180.0" y1="1340.0" x2="110.0" y2="1340.0" marker-end="url(#dot)"/><line stroke="yellow" stroke-width="1" x1="110.0" y1="1340.0" x2="60.0" y2="1340.0" marker-end="url(#dot)"/><line stroke="magenta" stroke-width="1" x1="60.0" y1="1340.0" x2="60.0" y2="1280.0" marker-end="url(#dot)"/><line stroke="yellow" stroke-width="1" x1="60.0" y1="1280.0" x2="110.0" y2="1280.0" marker-end="url(#dot)"/><line stroke="yellow" stroke-width="1" x1="110.0" y1="1280.0" x2="190.0" y2="1280.0" marker-end="url(#dot)"/><line stroke="magenta" stroke-width="1" x1="190.0" y1="1280.0" x2="190.0" y2="1200.0" marker-end="url(#dot)"/><line stroke="yellow" stroke-width="1" x1="190.0" y1="1200.0" x2="110.0" y2="1200.0" marker-end="url(#dot)"/><line stroke="yellow" stroke-width="1" x1="110.0" y1="1200.0" x2="190.0" y2="1140.0" marker-end="url(#dot)"/><line stroke="magenta" stroke-width="1" x1="190.0" y1="1140.0" x2="230.0" y2="410.0" marker-end="url(#dot)"/><line stroke="blue" stroke-width="1" x1="230.0" y1="410.0" x2="310.0" y2="350.0" marker-end="url(#dot)"/><line stroke="blue" stroke-width="1" x1="310.0" y1="350.0" x2="310.0" y2="355.0" marker-end="url(#dot)"/></svg>